{
  "accessors": [
    {
      "bufferView": 2,
      "componentType": 5126,
      "count": 302,
      "max": [
        0.11803054809570312,
        0.11567910760641098,
        0.27832645177841187
      ],
      "min": [
        -0.13422660529613495,
        -0.12968355417251587,
        -0.0060132676735520363
      ],
      "type": "VEC3"
    },
    {
      "bufferView": 2,
      "byteOffset": 3624,
      "componentType": 5126,
      "count": 302,
      "max": [
        0.99578487873077393,
        0.98912340402603149,
        0.85368573665618896
      ],
      "min": [
        -0.99341869354248047,
        -0.98031121492385864,
        -0.99413800239562988
      ],
      "type": "VEC3"
    },
    {
      "bufferView": 3,
      "componentType": 5126,
      "count": 302,
      "max": [
        0.9973941445350647,
        0.96935266256332397,
        0.99330568313598633,
        1
      ],
      "min": [
        -0.72231817245483398,
        -0.86147171258926392,
        -0.63071525096893311,
        -1
      ],
      "type": "VEC4"
    },
    {
      "bufferView": 1,
      "componentType": 5126,
      "count": 302,
      "max": [
        0.77676552534103394,
        0.98048168420791626
      ],
      "min": [
        0.0096107199788093567,
        0.087939172983169556
      ],
      "type": "VEC2"
    },
    {
      "bufferView": 0,
      "componentType": 5125,
      "count": 1074,
      "max": [
        301
      ],
      "min": [
        0
      ],
      "type": "SCALAR"
    }
  ],
  "asset": {
    "extras": {
      "author": "Kitkat (https://sketchfab.com/chushoga)",
      "license": "CC-BY-NC-4.0 (http://creativecommons.org/licenses/by-nc/4.0/)",
      "source": "https://sketchfab.com/3d-models/flower01-8b5e2b2002bf422abec750a86bb0743e",
      "title": "Flower01"
    },
    "generator": "Sketchfab-6.36.0",
    "version": "2.0"
  },
  "bufferViews": [
    {
      "buffer": 0,
      "byteLength": 4296,
      "byteOffset": 0,
      "name": "floatBufferViews",
      "target": 34963
    },
    {
      "buffer": 0,
      "byteLength": 2416,
      "byteOffset": 4296,
      "byteStride": 8,
      "name": "floatBufferViews",
      "target": 34962
    },
    {
      "buffer": 0,
      "byteLength": 7248,
      "byteOffset": 6712,
      "byteStride": 12,
      "name": "floatBufferViews",
      "target": 34962
    },
    {
      "buffer": 0,
      "byteLength": 4832,
      "byteOffset": 13960,
      "byteStride": 16,
      "name": "floatBufferViews",
      "target": 34962
    }
  ],
  "buffers": [
    {
      "byteLength": 18792,
      "uri": "scene.bin"
    }
  ],
  "images": [
    {
      "uri": "textures/foilage01_baseColor.png"
    }
  ],
  "materials": [
    {
      "alphaMode": "BLEND",
      "doubleSided": true,
      "name": "foilage01",
      "pbrMetallicRoughness": {
        "baseColorFactor": [
          1,
          1,
          1,
          1
        ],
        "baseColorTexture": {
          "index": 0,
          "texCoord": 0
        },
        "metallicFactor": 0,
        "roughnessFactor": 0.95770514946237739
      }
    }
  ],
  "meshes": [
    {
      "name": "Flower01_foilage01_0",
      "primitives": [
        {
          "attributes": {
            "NORMAL": 1,
            "POSITION": 0,
            "TANGENT": 2,
            "TEXCOORD_0": 3
          },
          "indices": 4,
          "material": 0,
          "mode": 4
        }
      ]
    }
  ],
  "nodes": [
    {
      "children": [
        1
      ],
      "name": "RootNode (gltf orientation matrix)",
      "rotation": [
        -0.70710678118654746,
        -0,
        -0,
        0.70710678118654757
      ]
    },
    {
      "children": [
        2
      ],
      "name": "RootNode (model correction matrix)"
    },
    {
      "children": [
        3
      ],
      "matrix": [
        1,
        0,
        0,
        0,
        0,
        0,
        1,
        0,
        0,
        -1,
        0,
        0,
        0,
        0,
        0,
        1
      ],
      "name": "03d5d8f381954f439d8ac9917f115905.fbx"
    },
    {
      "children": [
        4
      ],
      "name": "RootNode"
    },
    {
      "children": [
        5
      ],
      "matrix": [
        100,
        0,
        0,
        0,
        0,
        -1.6292067939183141e-05,
        -99.999999999998678,
        0,
        0,
        99.999999999998678,
        -1.6292067939183141e-05,
        0,
        0,
        0,
        0,
        1
      ],
      "name": "Flower01"
    },
    {
      "mesh": 0,
      "name": "Flower01_foilage01_0"
    }
  ],
  "samplers": [
    {
      "magFilter": 9729,
      "minFilter": 9987,
      "wrapS": 10497,
      "wrapT": 10497
    }
  ],
  "scene": 0,
  "scenes": [
    {
      "name": "OSG_Scene",
      "nodes": [
        0
      ]
    }
  ],
  "textures": [
    {
      "sampler": 0,
      "source": 0
    }
  ]
}

