{
  "accessors": [
    {
      "bufferView": 2,
      "componentType": 5126,
      "count": 16,
      "max": [
        1.4276119470596313,
        5.022697925567627,
        1.6934939622879028
      ],
      "min": [
        -1.4276119470596313,
        4.1124200820922852,
        0.63062781095504761
      ],
      "type": "VEC3"
    },
    {
      "bufferView": 2,
      "byteOffset": 192,
      "componentType": 5126,
      "count": 16,
      "max": [
        0.34770575165748596,
        0.54529017210006714,
        0.86465150117874146
      ],
      "min": [
        -0.34770575165748596,
        0.46308678388595581,
        0.77345019578933716
      ],
      "type": "VEC3"
    },
    {
      "bufferView": 3,
      "componentType": 5126,
      "count": 16,
      "max": [
        0.9944993257522583,
        0.091561026871204376,
        0.39381805062294006,
        1
      ],
      "min": [
        0.91918307542800903,
        -0.091561026871204376,
        -0.39381799101829529,
        1
      ],
      "type": "VEC4"
    },
    {
      "bufferView": 1,
      "componentType": 5126,
      "count": 16,
      "max": [
        5.5217289924621582,
        0.998046875
      ],
      "min": [
        -4.5217289924621582,
        -3.853515625
      ],
      "type": "VEC2"
    },
    {
      "bufferView": 0,
      "componentType": 5125,
      "count": 36,
      "max": [
        15
      ],
      "min": [
        0
      ],
      "type": "SCALAR"
    },
    {
      "bufferView": 2,
      "byteOffset": 384,
      "componentType": 5126,
      "count": 5328,
      "max": [
        8.077850341796875,
        11.326952934265137,
        2.6624879837036133
      ],
      "min": [
        -8.7985248565673828,
        1.9192539184587076e-05,
        -6.2456049919128418
      ],
      "type": "VEC3"
    },
    {
      "bufferView": 2,
      "byteOffset": 64320,
      "componentType": 5126,
      "count": 5328,
      "max": [
        1.0001204013824463,
        1,
        1
      ],
      "min": [
        -1.0001204013824463,
        -1,
        -1
      ],
      "type": "VEC3"
    },
    {
      "bufferView": 3,
      "byteOffset": 256,
      "componentType": 5126,
      "count": 5328,
      "max": [
        1,
        1,
        1,
        1
      ],
      "min": [
        -1,
        -1,
        -1,
        -1
      ],
      "type": "VEC4"
    },
    {
      "bufferView": 1,
      "byteOffset": 128,
      "componentType": 5126,
      "count": 5328,
      "max": [
        1,
        1.015625
      ],
      "min": [
        0,
        -0.00164794921875
      ],
      "type": "VEC2"
    },
    {
      "bufferView": 0,
      "byteOffset": 144,
      "componentType": 5125,
      "count": 13566,
      "max": [
        5327
      ],
      "min": [
        0
      ],
      "type": "SCALAR"
    },
    {
      "bufferView": 2,
      "byteOffset": 128256,
      "componentType": 5126,
      "count": 528,
      "max": [
        6.8306469917297363,
        7.9053878784179688,
        2.016463041305542
      ],
      "min": [
        -6.8306450843811035,
        0.86206901073455811,
        -6.9423828125
      ],
      "type": "VEC3"
    },
    {
      "bufferView": 2,
      "byteOffset": 134592,
      "componentType": 5126,
      "count": 528,
      "max": [
        0.99995535612106323,
        0.99995046854019165,
        0.99005800485610962
      ],
      "min": [
        -0.99995535612106323,
        -0.99995046854019165,
        -0.99005800485610962
      ],
      "type": "VEC3"
    },
    {
      "bufferView": 3,
      "byteOffset": 85504,
      "componentType": 5126,
      "count": 528,
      "max": [
        0.99991226196289062,
        0.99026387929916382,
        0.99999743700027466,
        1
      ],
      "min": [
        -0.99998646974563599,
        -0.99961662292480469,
        -0.99999445676803589,
        -1
      ],
      "type": "VEC4"
    },
    {
      "bufferView": 1,
      "byteOffset": 42752,
      "componentType": 5126,
      "count": 528,
      "max": [
        1.0039060115814209,
        1.0007929801940918
      ],
      "min": [
        0,
        0.56353759765625
      ],
      "type": "VEC2"
    },
    {
      "bufferView": 0,
      "byteOffset": 54408,
      "componentType": 5125,
      "count": 984,
      "max": [
        527
      ],
      "min": [
        0
      ],
      "type": "SCALAR"
    },
    {
      "bufferView": 4,
      "componentType": 5126,
      "count": 1,
      "max": [
        1,
        0,
        0,
        0,
        0,
        1,
        0,
        0,
        0,
        0,
        1,
        0,
        0,
        0,
        0,
        1
      ],
      "min": [
        1,
        0,
        0,
        0,
        0,
        1,
        0,
        0,
        0,
        0,
        1,
        0,
        0,
        0,
        0,
        1
      ],
      "type": "MAT4"
    }
  ],
  "asset": {
    "extras": {
      "author": "MBychowski (https://sketchfab.com/michabych8)",
      "license": "CC-BY-4.0 (http://creativecommons.org/licenses/by/4.0/)",
      "source": "https://sketchfab.com/models/50556a48222d4e6eb2df94bd301dcb74",
      "title": "Rusted Xord"
    },
    "generator": "Sketchfab-3.33.1",
    "version": "2.0"
  },
  "bufferViews": [
    {
      "buffer": 0,
      "byteLength": 58344,
      "byteOffset": 0,
      "name": "floatBufferViews",
      "target": 34963
    },
    {
      "buffer": 0,
      "byteLength": 46976,
      "byteOffset": 58344,
      "byteStride": 8,
      "name": "floatBufferViews",
      "target": 34962
    },
    {
      "buffer": 0,
      "byteLength": 140928,
      "byteOffset": 105320,
      "byteStride": 12,
      "name": "floatBufferViews",
      "target": 34962
    },
    {
      "buffer": 0,
      "byteLength": 93952,
      "byteOffset": 246248,
      "byteStride": 16,
      "name": "floatBufferViews",
      "target": 34962
    },
    {
      "buffer": 0,
      "byteLength": 64,
      "byteOffset": 340200,
      "byteStride": 64,
      "name": "floatBufferViews"
    }
  ],
  "buffers": [
    {
      "byteLength": 340264,
      "uri": "scene.bin"
    }
  ],
  "images": [
    {
      "uri": "textures/kihonC_baseColor.png"
    },
    {
      "uri": "textures/kihonA_baseColor.png"
    },
    {
      "uri": "textures/kihonB_baseColor.png"
    }
  ],
  "materials": [
    {
      "doubleSided": true,
      "emissiveFactor": [
        0,
        0,
        0
      ],
      "name": "kihonC",
      "pbrMetallicRoughness": {
        "baseColorFactor": [
          1,
          1,
          1,
          1
        ],
        "baseColorTexture": {
          "index": 0,
          "texCoord": 0
        },
        "metallicFactor": 1,
        "roughnessFactor": 0.59999999999999998
      }
    },
    {
      "doubleSided": true,
      "emissiveFactor": [
        0,
        0,
        0
      ],
      "name": "kihonA",
      "pbrMetallicRoughness": {
        "baseColorFactor": [
          1,
          1,
          1,
          1
        ],
        "baseColorTexture": {
          "index": 1,
          "texCoord": 0
        },
        "metallicFactor": 1,
        "roughnessFactor": 0.59999999999999998
      }
    },
    {
      "doubleSided": true,
      "emissiveFactor": [
        0,
        0,
        0
      ],
      "name": "kihonB",
      "pbrMetallicRoughness": {
        "baseColorFactor": [
          1,
          1,
          1,
          1
        ],
        "baseColorTexture": {
          "index": 2,
          "texCoord": 0
        },
        "metallicFactor": 1,
        "roughnessFactor": 0.59999999999999998
      }
    }
  ],
  "meshes": [
    {
      "primitives": [
        {
          "attributes": {
            "NORMAL": 1,
            "POSITION": 0,
            "TANGENT": 2,
            "TEXCOORD_0": 3
          },
          "indices": 4,
          "material": 0,
          "mode": 4
        }
      ]
    },
    {
      "primitives": [
        {
          "attributes": {
            "NORMAL": 6,
            "POSITION": 5,
            "TANGENT": 7,
            "TEXCOORD_0": 8
          },
          "indices": 9,
          "material": 1,
          "mode": 4
        }
      ]
    },
    {
      "primitives": [
        {
          "attributes": {
            "NORMAL": 11,
            "POSITION": 10,
            "TANGENT": 12,
            "TEXCOORD_0": 13
          },
          "indices": 14,
          "material": 2,
          "mode": 4
        }
      ]
    }
  ],
  "nodes": [
    {
      "children": [
        1
      ],
      "name": "RootNode (gltf orientation matrix)",
      "rotation": [
        -0.70710678118654746,
        -0,
        -0,
        0.70710678118654757
      ]
    },
    {
      "children": [
        2
      ],
      "name": "RootNode (model correction matrix)"
    },
    {
      "children": [
        3
      ],
      "matrix": [
        1,
        0,
        0,
        0,
        0,
        0,
        1,
        0,
        0,
        -1,
        0,
        0,
        0,
        0,
        0,
        1
      ],
      "name": "RustedXordFBX.fbx"
    },
    {
      "children": [
        4
      ],
      "name": "RootNode"
    },
    {
      "children": [
        5,
        6,
        7,
        8,
        9
      ],
      "name": ""
    },
    {
      "name": "_rootJoint"
    },
    {
      "mesh": 0,
      "name": ""
    },
    {
      "mesh": 1,
      "name": ""
    },
    {
      "mesh": 2,
      "name": ""
    },
    {
      "children": [
        10
      ],
      "matrix": [
        -0.022040349757739497,
        -0.051602028241749129,
        -0.99842448570930697,
        0,
        -0.001138844000784147,
        0.99866772786614955,
        -0.051589459708395409,
        0,
        0.99975643334609177,
        1.9428902930940239e-16,
        -0.022069752674228393,
        0,
        0.2043551504611969,
        6.7204346656799316,
        21.242090225219727,
        1
      ],
      "name": "CINEMA_4D_Editor"
    },
    {
      "name": ""
    }
  ],
  "samplers": [
    {
      "magFilter": 9729,
      "minFilter": 9987,
      "wrapS": 10497,
      "wrapT": 10497
    }
  ],
  "scene": 0,
  "scenes": [
    {
      "name": "OSG_Scene",
      "nodes": [
        0
      ]
    }
  ],
  "skins": [
    {
      "inverseBindMatrices": 15,
      "joints": [
        5
      ],
      "skeleton": 5
    }
  ],
  "textures": [
    {
      "sampler": 0,
      "source": 0
    },
    {
      "sampler": 0,
      "source": 1
    },
    {
      "sampler": 0,
      "source": 2
    }
  ]
}

