{
  "accessors": [
    {
      "bufferView": 1,
      "componentType": 5126,
      "count": 12,
      "max": [
        0.90032303333282471,
        3.1865530014038086,
        0.090236000716686249
      ],
      "min": [
        0.77817404270172119,
        3.1516928672790527,
        0.085836000740528107
      ],
      "type": "VEC3"
    },
    {
      "bufferView": 0,
      "componentType": 5125,
      "count": 28,
      "max": [
        11
      ],
      "min": [
        0
      ],
      "type": "SCALAR"
    },
    {
      "bufferView": 1,
      "byteOffset": 144,
      "componentType": 5126,
      "count": 768,
      "max": [
        1.3230999708175659,
        2.9923179149627686,
        0.14609900116920471
      ],
      "min": [
        0.19334200024604797,
        1.8354479074478149,
        0.02993299812078476
      ],
      "type": "VEC3"
    },
    {
      "bufferView": 1,
      "byteOffset": 9360,
      "componentType": 5126,
      "count": 768,
      "max": [
        0.99961560964584351,
        0.63610327243804932,
        1
      ],
      "min": [
        -0.63610327243804932,
        -0.63610327243804932,
        -1
      ],
      "type": "VEC3"
    },
    {
      "bufferView": 0,
      "byteOffset": 112,
      "componentType": 5125,
      "count": 3072,
      "max": [
        767
      ],
      "min": [
        0
      ],
      "type": "SCALAR"
    },
    {
      "bufferView": 1,
      "byteOffset": 18576,
      "componentType": 5126,
      "count": 510,
      "max": [
        1.3040130138397217,
        4.7177138328552246,
        0.10515499860048294
      ],
      "min": [
        0.19627399742603302,
        2.1392428874969482,
        0.070918001234531403
      ],
      "type": "VEC3"
    },
    {
      "bufferView": 1,
      "byteOffset": 24696,
      "componentType": 5126,
      "count": 510,
      "max": [
        1,
        0.90761375427246094,
        1
      ],
      "min": [
        -1,
        -0.88541233539581299,
        -1
      ],
      "type": "VEC3"
    },
    {
      "bufferView": 0,
      "byteOffset": 12400,
      "componentType": 5125,
      "count": 1143,
      "max": [
        509
      ],
      "min": [
        0
      ],
      "type": "SCALAR"
    },
    {
      "bufferView": 1,
      "byteOffset": 30816,
      "componentType": 5126,
      "count": 2123,
      "max": [
        1.3050550222396851,
        4.7321300506591797,
        0.11307899653911591
      ],
      "min": [
        0.19032600522041321,
        2.1392419338226318,
        0.062994003295898438
      ],
      "type": "VEC3"
    },
    {
      "bufferView": 1,
      "byteOffset": 56292,
      "componentType": 5126,
      "count": 2123,
      "max": [
        1,
        1,
        1
      ],
      "min": [
        -1,
        -1,
        -1
      ],
      "type": "VEC3"
    },
    {
      "bufferView": 0,
      "byteOffset": 16972,
      "componentType": 5125,
      "count": 4638,
      "max": [
        2122
      ],
      "min": [
        0
      ],
      "type": "SCALAR"
    },
    {
      "bufferView": 1,
      "byteOffset": 81768,
      "componentType": 5126,
      "count": 14,
      "max": [
        0.9999769926071167,
        4.9595580101013184,
        0.14333200454711914
      ],
      "min": [
        0.84558701515197754,
        0.052526950836181641,
        0.032739996910095215
      ],
      "type": "VEC3"
    },
    {
      "bufferView": 0,
      "byteOffset": 35524,
      "componentType": 5125,
      "count": 18,
      "max": [
        13
      ],
      "min": [
        0
      ],
      "type": "SCALAR"
    },
    {
      "bufferView": 1,
      "byteOffset": 81936,
      "componentType": 5126,
      "count": 3529,
      "max": [
        1.3755760192871094,
        6.0030221939086914,
        0.17607200145721436
      ],
      "min": [
        0,
        0,
        0
      ],
      "type": "VEC3"
    },
    {
      "bufferView": 1,
      "byteOffset": 124284,
      "componentType": 5126,
      "count": 3529,
      "max": [
        1,
        0.998890221118927,
        1
      ],
      "min": [
        -1,
        -1,
        -1
      ],
      "type": "VEC3"
    },
    {
      "bufferView": 0,
      "byteOffset": 35596,
      "componentType": 5125,
      "count": 12915,
      "max": [
        3528
      ],
      "min": [
        0
      ],
      "type": "SCALAR"
    },
    {
      "bufferView": 1,
      "byteOffset": 166632,
      "componentType": 5126,
      "count": 1576,
      "max": [
        1.3882900476455688,
        5.3492527008056641,
        0.15968500077724457
      ],
      "min": [
        0.76771402359008789,
        2.0537848472595215,
        0.016387000679969788
      ],
      "type": "VEC3"
    },
    {
      "bufferView": 1,
      "byteOffset": 185544,
      "componentType": 5126,
      "count": 1576,
      "max": [
        0.86658322811126709,
        0.99818038940429688,
        1
      ],
      "min": [
        -1,
        -0.99842506647109985,
        -1
      ],
      "type": "VEC3"
    },
    {
      "bufferView": 0,
      "byteOffset": 87256,
      "componentType": 5125,
      "count": 5256,
      "max": [
        1575
      ],
      "min": [
        0
      ],
      "type": "SCALAR"
    },
    {
      "bufferView": 1,
      "byteOffset": 204456,
      "componentType": 5126,
      "count": 4484,
      "max": [
        1.279075026512146,
        5.8161783218383789,
        0.15649199485778809
      ],
      "min": [
        0.23166200518608093,
        0.064521074295043945,
        0.019579999148845673
      ],
      "type": "VEC3"
    },
    {
      "bufferView": 1,
      "byteOffset": 258264,
      "componentType": 5126,
      "count": 4484,
      "max": [
        1,
        1,
        1
      ],
      "min": [
        -1,
        -1,
        -1
      ],
      "type": "VEC3"
    },
    {
      "bufferView": 0,
      "byteOffset": 108280,
      "componentType": 5125,
      "count": 14388,
      "max": [
        4483
      ],
      "min": [
        0
      ],
      "type": "SCALAR"
    }
  ],
  "asset": {
    "extras": {
      "author": "Don42 (https://sketchfab.com/Don42)",
      "license": "CC-BY-NC-SA-4.0 (http://creativecommons.org/licenses/by-nc-sa/4.0/)",
      "source": "https://sketchfab.com/models/e8777b7056fe4414a03d4c27d0e7d30f",
      "title": "Xenoblade Chronicles Monado"
    },
    "generator": "Sketchfab-3.47.0",
    "version": "2.0"
  },
  "bufferViews": [
    {
      "buffer": 0,
      "byteLength": 165832,
      "byteOffset": 0,
      "name": "floatBufferViews",
      "target": 34963
    },
    {
      "buffer": 0,
      "byteLength": 312072,
      "byteOffset": 165832,
      "byteStride": 12,
      "name": "floatBufferViews",
      "target": 34962
    }
  ],
  "buffers": [
    {
      "byteLength": 477904,
      "uri": "scene.bin"
    }
  ],
  "materials": [
    {
      "doubleSided": true,
      "emissiveFactor": [
        0,
        0,
        0
      ],
      "name": "Material.000",
      "pbrMetallicRoughness": {
        "baseColorFactor": [
          0.13163126580000001,
          0.082809993200000001,
          0.031214448200000001,
          1
        ],
        "metallicFactor": 0,
        "roughnessFactor": 0.25171493900000003
      }
    },
    {
      "doubleSided": true,
      "emissiveFactor": [
        0,
        0,
        0
      ],
      "name": "Material.001",
      "pbrMetallicRoughness": {
        "baseColorFactor": [
          0.52597470950000003,
          0.28189231590000002,
          0.1189084168,
          1
        ],
        "metallicFactor": 0.4834222561,
        "roughnessFactor": 0.35804115849999996
      }
    },
    {
      "doubleSided": true,
      "emissiveFactor": [
        0,
        0,
        0
      ],
      "name": "material",
      "pbrMetallicRoughness": {
        "baseColorFactor": [
          1,
          0.027617914600000001,
          0.011750637499999999,
          1
        ],
        "metallicFactor": 1,
        "roughnessFactor": 0.25
      }
    },
    {
      "doubleSided": true,
      "emissiveFactor": [
        0,
        0,
        0
      ],
      "name": "Red_dark",
      "pbrMetallicRoughness": {
        "baseColorFactor": [
          0.49203814099999998,
          0.021564554999999999,
          0.021564554999999999,
          1
        ],
        "metallicFactor": 1,
        "roughnessFactor": 0.19999999999999996
      }
    },
    {
      "doubleSided": true,
      "emissiveFactor": [
        0,
        0.925066477,
        1
      ],
      "name": "bloom_blue",
      "pbrMetallicRoughness": {
        "baseColorFactor": [
          0,
          0.0387077199,
          0.23509307099999999,
          1
        ],
        "metallicFactor": 0,
        "roughnessFactor": 1
      }
    }
  ],
  "meshes": [
    {
      "primitives": [
        {
          "attributes": {
            "POSITION": 0
          },
          "indices": 1,
          "material": 1,
          "mode": 1
        }
      ]
    },
    {
      "primitives": [
        {
          "attributes": {
            "NORMAL": 3,
            "POSITION": 2
          },
          "indices": 4,
          "material": 3,
          "mode": 4
        }
      ]
    },
    {
      "primitives": [
        {
          "attributes": {
            "NORMAL": 6,
            "POSITION": 5
          },
          "indices": 7,
          "material": 0,
          "mode": 4
        }
      ]
    },
    {
      "primitives": [
        {
          "attributes": {
            "NORMAL": 9,
            "POSITION": 8
          },
          "indices": 10,
          "material": 1,
          "mode": 4
        }
      ]
    },
    {
      "primitives": [
        {
          "attributes": {
            "POSITION": 11
          },
          "indices": 12,
          "material": 2,
          "mode": 1
        }
      ]
    },
    {
      "primitives": [
        {
          "attributes": {
            "NORMAL": 14,
            "POSITION": 13
          },
          "indices": 15,
          "material": 2,
          "mode": 4
        }
      ]
    },
    {
      "primitives": [
        {
          "attributes": {
            "NORMAL": 17,
            "POSITION": 16
          },
          "indices": 18,
          "material": 2,
          "mode": 4
        }
      ]
    },
    {
      "primitives": [
        {
          "attributes": {
            "NORMAL": 20,
            "POSITION": 19
          },
          "indices": 21,
          "material": 4,
          "mode": 4
        }
      ]
    }
  ],
  "nodes": [
    {
      "children": [
        1
      ],
      "name": "RootNode (gltf orientation matrix)",
      "rotation": [
        -0.70710678118654746,
        -0,
        -0,
        0.70710678118654757
      ]
    },
    {
      "children": [
        2
      ],
      "name": "RootNode (model correction matrix)"
    },
    {
      "children": [
        3
      ],
      "matrix": [
        1,
        0,
        0,
        0,
        0,
        1,
        0,
        0,
        0,
        0,
        1,
        0,
        0.0011840000515803695,
        -2.9997639656066895,
        -0.091435998678207397,
        1
      ],
      "name": "Monado.obj.cleaner.gles"
    },
    {
      "children": [
        4,
        5,
        6,
        7,
        8,
        9,
        10,
        11
      ],
      "name": ""
    },
    {
      "mesh": 0,
      "name": ""
    },
    {
      "mesh": 1,
      "name": ""
    },
    {
      "mesh": 2,
      "name": ""
    },
    {
      "mesh": 3,
      "name": ""
    },
    {
      "mesh": 4,
      "name": ""
    },
    {
      "mesh": 5,
      "name": ""
    },
    {
      "mesh": 6,
      "name": ""
    },
    {
      "mesh": 7,
      "name": ""
    }
  ],
  "scene": 0,
  "scenes": [
    {
      "name": "OSG_Scene",
      "nodes": [
        0
      ]
    }
  ]
}

